<svg xmlns="http://www.w3.org/2000/svg" xmlns:xlink="http://www.w3.org/1999/xlink" viewBox="0 0 16 16" fill="#F55A00">
  <path d="M1 2L1 6.5C1 8.257813 2.308594 9.703125 4 9.949219L4 13L2 13L2 14L7 14L7 13L5 13L5 9.949219C6.691406 9.703125 8 8.257813 8 6.5L8 2 Z M 9 2L9 6.5C9 7.703125 9.863281 8.714844 11 8.949219L11 14L12 14L12 8.949219C13.136719 8.714844 14 7.703125 14 6.5L14 2L13 2L13 6.5C13 7.335938 12.335938 8 11.5 8C10.664063 8 10 7.335938 10 6.5L10 2 Z M 11 2L11 6.5C11 6.777344 11.222656 7 11.5 7C11.777344 7 12 6.777344 12 6.5L12 2 Z M 2 3L7 3L7 6.5C7 7.886719 5.886719 9 4.5 9C3.113281 9 2 7.886719 2 6.5Z" fill="#F55A00" />
</svg>