<svg xmlns="http://www.w3.org/2000/svg" xmlns:xlink="http://www.w3.org/1999/xlink" viewBox="0 0 16 16" fill="#F55A00">
  <path d="M10.644531 1.648438L8.351563 3.9375C7.773438 4.519531 7.769531 5.480469 8.351563 6.0625L8.792969 6.5L8 7.292969L2.5 1.792969L2.148438 2.148438C1.175781 3.117188 1.0625 4.769531 2.0625 5.765625L5.792969 9.5L2.148438 13.144531L2.851563 13.855469L6.5 10.207031L8 11.707031L9.5 10.207031L13.144531 13.855469L13.855469 13.144531L8.707031 8L9.5 7.207031L9.9375 7.648438C10.519531 8.226563 11.480469 8.230469 12.0625 7.648438L14.355469 5.351563L13.644531 4.648438L11.355469 6.9375C11.15625 7.140625 10.847656 7.140625 10.644531 6.9375L10.207031 6.5L12.855469 3.851563L12.144531 3.148438L9.5 5.792969L9.0625 5.351563C8.859375 5.15625 8.859375 4.847656 9.0625 4.648438L11.355469 2.351563 Z M 2.640625 3.347656L8.792969 9.5L8 10.292969L2.765625 5.0625C2.328125 4.621094 2.367188 3.929688 2.640625 3.347656Z" fill="#F55A00" />
</svg>